PathFileType	4	(X/Y/Z)	 Jog05.trc
DataRate	CameraRate	NumFrames	NumMarkers	Units	OrigDataRate	OrigDataStartFrame	OrigNumFrames
250	250	12	31	m	250	163	651
Frame#	Time	RASI			LASI			RAIC			LAIC			RTH2			RTB3			RMT1			RMT5			LTH1			LTH2			LTH3			LCAL			LMT1			LMT5			CLAV			STRN			RACR			LACR			RTH1			RTH3			LTB1			LTB2			C7			LPSI			T10			RPSI			LTB3			RTB1			RCAL			RTB2			C_30			
		X1	Y1	Z1	X2	Y2	Z2	X3	Y3	Z3	X4	Y4	Z4	X5	Y5	Z5	X6	Y6	Z6	X7	Y7	Z7	X8	Y8	Z8	X9	Y9	Z9	X10	Y10	Z10	X11	Y11	Z11	X12	Y12	Z12	X13	Y13	Z13	X14	Y14	Z14	X15	Y15	Z15	X16	Y16	Z16	X17	Y17	Z17	X18	Y18	Z18	X19	Y19	Z19	X20	Y20	Z20	X21	Y21	Z21	X22	Y22	Z22	X23	Y23	Z23	X24	Y24	Z24	X25	Y25	Z25	X26	Y26	Z26	X27	Y27	Z27	X28	Y28	Z28	X29	Y29	Z29	X30	Y30	Z30	X31	Y31	Z31	
163	0.6520	-1.781367	0.933345	0.504092	-1.773113	0.927751	0.269126	-1.842214	1.031701	0.537427	-1.822974	1.028333	0.234050	-1.832953	0.724280	0.534440	-2.034573	0.230277	0.389566	-2.036523	0.039511	0.376715	-2.051180	0.041164	0.469805	-1.803833	0.831955	0.205295	-1.714465	0.779229	0.215497	-1.716185	0.675398	0.197694	-2.094496	0.422614	0.316972	-1.996459	0.226642	0.309515	-2.010951	0.246205	0.221723	-1.713158	1.393506	0.397469	-1.698596	1.169802	0.385501	-1.759331	1.434223	0.578916	-1.767085	1.451838	0.222090	-1.882035	0.812989	0.562022	-1.889004	0.640119	0.521045	-1.731123	0.439509	0.296526	-1.799777	0.416335	0.247701	-1.825103	1.488693	0.399764	-1.947856	1.014626	0.347956	-1.918994	1.207818	0.391387	-1.950941	1.013819	0.421081	-1.861997	0.402605	0.304245	-1.946759	0.334744	0.386879	-2.235109	0.111558	0.389634	-1.973901	0.272915	0.437204	-1.899868	0.464827	0.354258	
164	0.6560	-1.763594	0.935992	0.504112	-1.756403	0.932103	0.269100	-1.823996	1.034384	0.537267	-1.807350	1.032795	0.233696	-1.819447	0.726289	0.533541	-2.029727	0.234028	0.391025	-2.035646	0.039932	0.377135	-2.050487	0.041466	0.470037	-1.786674	0.836961	0.204812	-1.696974	0.785302	0.215643	-1.697034	0.681109	0.197865	-2.069740	0.408855	0.318910	-1.961450	0.218098	0.311300	-1.978066	0.236749	0.223180	-1.697888	1.398275	0.396156	-1.681665	1.174953	0.383990	-1.742440	1.438776	0.577713	-1.754102	1.456034	0.222023	-1.865742	0.816003	0.561608	-1.877568	0.643354	0.521001	-1.706879	0.442055	0.297491	-1.774891	0.415795	0.248649	-1.810071	1.492180	0.399598	-1.930912	1.018519	0.348159	-1.902568	1.210875	0.392849	-1.933669	1.017216	0.421283	-1.836070	0.399352	0.305367	-1.941788	0.338411	0.387759	-2.230846	0.118249	0.390994	-1.969118	0.276707	0.438257	-1.893052	0.467323	0.355146	
165	0.6600	-1.746788	0.938615	0.503254	-1.739710	0.936546	0.268840	-1.805584	1.037264	0.537341	-1.790201	1.037299	0.233693	-1.805564	0.728311	0.532557	-2.024379	0.238031	0.392846	-2.034937	0.040214	0.377519	-2.049667	0.041779	0.470294	-1.769480	0.842033	0.204255	-1.679452	0.791063	0.215743	-1.678786	0.687159	0.198154	-2.044453	0.394927	0.320825	-1.928114	0.209247	0.312377	-1.944819	0.227485	0.224653	-1.682659	1.403002	0.394737	-1.664734	1.180175	0.382457	-1.725590	1.443386	0.576474	-1.741338	1.460469	0.221667	-1.848470	0.819073	0.561055	-1.865857	0.646670	0.521131	-1.683128	0.444186	0.298148	-1.750180	0.415287	0.249954	-1.795026	1.495660	0.399332	-1.913809	1.022531	0.348402	-1.886016	1.214004	0.394309	-1.916198	1.020674	0.421480	-1.810802	0.395629	0.306769	-1.936511	0.341972	0.389251	-2.226484	0.125880	0.392269	-1.964077	0.280634	0.439954	-1.887125	0.470356	0.356113	
166	0.6640	-1.729339	0.941276	0.502605	-1.722946	0.941129	0.268556	-1.786679	1.040045	0.536828	-1.772947	1.041815	0.233705	-1.791527	0.730365	0.531738	-2.019285	0.242245	0.394232	-2.034135	0.040756	0.377974	-2.048756	0.042131	0.470526	-1.752231	0.847161	0.203660	-1.661956	0.796921	0.215894	-1.659736	0.692933	0.198698	-2.018528	0.380781	0.322595	-1.893341	0.201141	0.313655	-1.911315	0.218412	0.226075	-1.667413	1.407757	0.393200	-1.647240	1.185244	0.380807	-1.708719	1.448022	0.575175	-1.728258	1.464724	0.221537	-1.831921	0.822060	0.560562	-1.853873	0.649978	0.521365	-1.659695	0.446173	0.299227	-1.725646	0.414589	0.250509	-1.779968	1.499145	0.399074	-1.896649	1.026620	0.348649	-1.869447	1.217210	0.395747	-1.898691	1.024214	0.421713	-1.785443	0.392090	0.307772	-1.930198	0.345858	0.390138	-2.221683	0.133217	0.393342	-1.958921	0.284793	0.441358	-1.880753	0.473575	0.357328	
167	0.6680	-1.711740	0.943935	0.501795	-1.705810	0.945676	0.268193	-1.767968	1.043041	0.536613	-1.756415	1.046560	0.233661	-1.777421	0.732374	0.530642	-2.013624	0.246483	0.395688	-2.032998	0.041156	0.378381	-2.047670	0.042519	0.470785	-1.734935	0.852362	0.203128	-1.644474	0.802663	0.216059	-1.641435	0.698730	0.198800	-1.991993	0.366591	0.324421	-1.858397	0.193137	0.315069	-1.877689	0.209632	0.227238	-1.652187	1.412505	0.391750	-1.630306	1.190458	0.379295	-1.691937	1.452661	0.573822	-1.715013	1.468742	0.221439	-1.815265	0.824962	0.560084	-1.841475	0.653272	0.521400	-1.636484	0.447979	0.300002	-1.701113	0.413726	0.251814	-1.764847	1.502648	0.398786	-1.879385	1.030762	0.348918	-1.852890	1.220444	0.397172	-1.881026	1.027808	0.421990	-1.759569	0.388470	0.308838	-1.924110	0.349791	0.391606	-2.216058	0.140820	0.394628	-1.953226	0.289160	0.442963	-1.873956	0.477001	0.358654	
168	0.6720	-1.694054	0.946524	0.500709	-1.689036	0.950351	0.267802	-1.749073	1.046145	0.536418	-1.739901	1.051427	0.233578	-1.763177	0.734301	0.529796	-2.007157	0.250636	0.397825	-2.031789	0.041805	0.378834	-2.046405	0.042897	0.471099	-1.717655	0.857473	0.202603	-1.626999	0.808318	0.216249	-1.623188	0.704397	0.198831	-1.964961	0.352391	0.326036	-1.823317	0.185598	0.316595	-1.843596	0.200955	0.228714	-1.637030	1.417246	0.390369	-1.613406	1.195594	0.377820	-1.675204	1.457262	0.572436	-1.701829	1.472944	0.221272	-1.798578	0.827777	0.559548	-1.829135	0.656580	0.521945	-1.613488	0.449571	0.300881	-1.676700	0.412734	0.252385	-1.749744	1.506103	0.398479	-1.862052	1.034957	0.349209	-1.836257	1.223683	0.398557	-1.863258	1.031450	0.422237	-1.733784	0.384816	0.310082	-1.918884	0.353072	0.393583	-2.209305	0.148367	0.396147	-1.947297	0.293589	0.444782	-1.867300	0.480814	0.359970	
169	0.6760	-1.676287	0.949018	0.499670	-1.672337	0.955079	0.267401	-1.729968	1.049307	0.536079	-1.722373	1.056229	0.232884	-1.748861	0.736336	0.529134	-2.001072	0.255242	0.399504	-2.030452	0.042599	0.379344	-2.044982	0.043357	0.471598	-1.699873	0.862559	0.202036	-1.609599	0.813803	0.216388	-1.605091	0.709980	0.198872	-1.937652	0.338243	0.327468	-1.788129	0.178310	0.318111	-1.809234	0.192590	0.230227	-1.621940	1.421650	0.389006	-1.596456	1.200668	0.376350	-1.658498	1.461826	0.570985	-1.687790	1.476703	0.221228	-1.782055	0.830490	0.559025	-1.815649	0.659943	0.522274	-1.590614	0.451061	0.301816	-1.652348	0.411691	0.253830	-1.734589	1.509520	0.398156	-1.844646	1.039207	0.349477	-1.819634	1.226881	0.399912	-1.845422	1.035140	0.422477	-1.707900	0.381099	0.311230	-1.913326	0.358901	0.394194	-2.203069	0.156276	0.397357	-1.940918	0.298243	0.446545	-1.860487	0.484887	0.361163	
170	0.6800	-1.658499	0.951433	0.498450	-1.655642	0.959720	0.266959	-1.710772	1.052424	0.535716	-1.704997	1.060938	0.232627	-1.734452	0.738280	0.528348	-1.994160	0.259501	0.401331	-2.028748	0.043772	0.379944	-2.043460	0.043933	0.472093	-1.682620	0.867595	0.201439	-1.592285	0.819184	0.216601	-1.587144	0.715416	0.198732	-1.910516	0.324335	0.328109	-1.752735	0.171282	0.319160	-1.774538	0.184455	0.231820	-1.606829	1.426156	0.387772	-1.579479	1.205653	0.374888	-1.641873	1.466307	0.569477	-1.674411	1.480667	0.221059	-1.765422	0.833147	0.558395	-1.803723	0.663128	0.522886	-1.567918	0.452412	0.302796	-1.627969	0.410368	0.254531	-1.719484	1.512823	0.397837	-1.827134	1.043438	0.349784	-1.802911	1.230042	0.401264	-1.827474	1.038860	0.422701	-1.682008	0.377368	0.312413	-1.905973	0.363378	0.396145	-2.196008	0.164865	0.398806	-1.934357	0.303006	0.448314	-1.852892	0.489109	0.362747	
171	0.6840	-1.640739	0.953750	0.497103	-1.639042	0.964337	0.266484	-1.691592	1.055781	0.535211	-1.688354	1.065836	0.232350	-1.720209	0.740169	0.528058	-1.987060	0.263934	0.403264	-2.026507	0.045191	0.380617	-2.041498	0.044838	0.472695	-1.665375	0.872522	0.200863	-1.574976	0.824396	0.216676	-1.569382	0.720633	0.198718	-1.881355	0.310177	0.329851	-1.717266	0.164777	0.320686	-1.739580	0.176647	0.233300	-1.591808	1.430257	0.386499	-1.562588	1.210564	0.373474	-1.625286	1.470712	0.567863	-1.660818	1.484366	0.220936	-1.748935	0.835774	0.557835	-1.790963	0.666211	0.523485	-1.545518	0.453643	0.303855	-1.603621	0.408883	0.255367	-1.703885	1.516095	0.397553	-1.809582	1.047651	0.350128	-1.786190	1.233078	0.402524	-1.809504	1.042583	0.422952	-1.656178	0.373611	0.313546	-1.898632	0.367653	0.398109	-2.188038	0.173182	0.400373	-1.927557	0.307854	0.450279	-1.845411	0.493445	0.363919	
172	0.6880	-1.622879	0.955890	0.495810	-1.622454	0.968874	0.265995	-1.672190	1.058885	0.534535	-1.672042	1.070708	0.232364	-1.705912	0.742106	0.527611	-1.979506	0.268324	0.405141	-2.024449	0.047215	0.381059	-2.039216	0.045703	0.473398	-1.648151	0.877297	0.200316	-1.557734	0.829349	0.216802	-1.551768	0.725653	0.198759	-1.852505	0.296337	0.330742	-1.681660	0.158669	0.322122	-1.704332	0.169280	0.234908	-1.576709	1.434364	0.385164	-1.545690	1.215229	0.372046	-1.608765	1.474980	0.566244	-1.647073	1.487815	0.220966	-1.732576	0.838337	0.557417	-1.777280	0.669695	0.524018	-1.523336	0.454707	0.305171	-1.579268	0.407458	0.256843	-1.688809	1.519140	0.397162	-1.791948	1.051857	0.350472	-1.769461	1.236004	0.403751	-1.791402	1.046263	0.423283	-1.630288	0.369945	0.314909	-1.891037	0.372139	0.400016	-2.180048	0.182018	0.401928	-1.920181	0.312759	0.452352	-1.837336	0.497937	0.365239	
173	0.6920	-1.604983	0.957997	0.494242	-1.605980	0.973312	0.265533	-1.652647	1.061944	0.534009	-1.655320	1.075449	0.232008	-1.691820	0.743999	0.527678	-1.971383	0.272668	0.407175	-2.021572	0.049005	0.382117	-2.036745	0.047068	0.474189	-1.630941	0.881988	0.199860	-1.540633	0.834110	0.216867	-1.534399	0.730424	0.198713	-1.822863	0.282322	0.331578	-1.645949	0.152861	0.323774	-1.668751	0.162200	0.236561	-1.561665	1.438269	0.383921	-1.528803	1.219816	0.370644	-1.592337	1.479082	0.564591	-1.633370	1.491196	0.220780	-1.716325	0.840919	0.556981	-1.764643	0.672835	0.524690	-1.501469	0.455715	0.306630	-1.555072	0.405793	0.258598	-1.673693	1.522015	0.396817	-1.774314	1.055998	0.350876	-1.752708	1.238763	0.404912	-1.773246	1.049901	0.423638	-1.604294	0.366239	0.316082	-1.882969	0.376653	0.402076	-2.171324	0.191045	0.403788	-1.912741	0.317698	0.454462	-1.828962	0.502487	0.366368	
174	0.6960	-1.587139	0.960017	0.492828	-1.589503	0.977612	0.264926	-1.633236	1.064960	0.533162	-1.638849	1.080082	0.231766	-1.677501	0.746053	0.527050	-1.963099	0.277266	0.409077	-2.018758	0.051627	0.382725	-2.033896	0.048748	0.475068	-1.613845	0.886480	0.199284	-1.523611	0.838565	0.216827	-1.517271	0.734868	0.198894	-1.793023	0.268598	0.332114	-1.610266	0.147446	0.325746	-1.632877	0.155646	0.238277	-1.546552	1.441845	0.382676	-1.512026	1.224226	0.369209	-1.575908	1.483021	0.562871	-1.619524	1.494293	0.220720	-1.700128	0.843442	0.556629	-1.751938	0.676142	0.525309	-1.479734	0.456557	0.307954	-1.530813	0.404051	0.260034	-1.658499	1.524682	0.396396	-1.756705	1.060053	0.351307	-1.735678	1.241336	0.406068	-1.754826	1.053476	0.424065	-1.578601	0.362449	0.317516	-1.874481	0.381073	0.403950	-2.162122	0.200149	0.405736	-1.904953	0.322676	0.456656	-1.820076	0.507113	0.367471	
